<svg width="970" height="250" viewBox="0 0 970 250" fill="none" xmlns="http://www.w3.org/2000/svg">
<g clip-path="url(#clip0_66_11)">
<rect width="970" height="250" fill="white"/>
<rect width="970" height="250" fill="#152540"/>
<path d="M167.479 70.0911C165.71 73.5204 163.042 75.5156 158.822 75.5156C152.74 75.5156 149.699 71.0887 148.923 65.2278L169.806 60.2398C169.806 54.036 163.228 47.458 155.75 48.4556C148.706 49.3909 142.934 54.2542 142.934 63.6379C142.934 73.0216 148.52 78.3837 156.712 78.3837C164.903 78.3837 166.889 75.2662 169.092 70.0911H167.541H167.479ZM155.905 49.3285C161.459 48.7986 164.314 53.7554 165.09 58.7746L148.83 64.3861C148.83 64.0743 148.768 63.7626 148.768 63.4197C148.644 57.8393 148.706 50.0144 155.905 49.2974M148.737 62.7962C148.737 62.5156 148.737 62.235 148.737 61.9233C148.737 61.6115 148.737 62.1727 148.737 62.7962Z" fill="#15263E"/>
<path d="M209.462 70.0911C207.693 73.5204 205.025 75.5156 200.805 75.5156C194.723 75.5156 191.682 71.0887 190.906 65.2278L211.789 60.2398C211.789 54.036 205.211 47.458 197.733 48.4556C190.689 49.3909 184.917 54.2542 184.917 63.6379C184.917 73.0216 190.503 78.3837 198.695 78.3837C206.887 78.3837 208.872 75.2662 211.076 70.0911H209.524H209.462ZM197.888 49.3285C203.442 48.7986 206.297 53.7554 207.073 58.7746L190.782 64.1679C190.782 63.9496 190.751 63.7626 190.751 63.5444C190.596 57.964 190.534 50.0144 197.888 49.2974M190.72 62.7962C190.72 62.5156 190.72 62.235 190.72 61.9233C190.72 61.6115 190.72 62.1727 190.72 62.7962Z" fill="#15263E"/>
<path d="M169.899 78.259C173.871 77.6667 174.43 76.1703 174.43 70.9329V41.4413C174.43 36.9832 173.623 36.1415 170.178 35.7362V35.3309L180.977 33.3669L181.101 33.7722C180.511 34.458 180.294 35.6115 180.294 41.4413V70.9329C180.294 76.1703 180.822 77.6978 184.607 78.259V78.6643H169.899V78.259Z" fill="#15263E"/>
<path d="M96.6689 56.2494C96.6689 42.5635 106.195 33.5228 119.072 33.5228C131.95 33.5228 136.759 38.8849 139.304 48.8297H133.16C131.608 40.5683 126.892 34.5827 119.135 34.5827C111.377 34.5827 103.62 43.9976 103.62 54.7842C103.62 65.5707 109.143 75.0479 120.624 75.0479C132.105 75.0479 137.039 68.5947 138.714 58.494H139.645C138.032 70.2782 130.802 78.5084 118.328 78.5084C105.854 78.5084 96.6689 68.6882 96.6689 56.2806" fill="#15263E"/>
<path d="M213.837 68.5324H218.957C219.361 74.0192 222.122 77.6978 227.18 77.6978C232.238 77.6978 233.262 75.5779 233.262 72.6786C233.262 69.7794 230.345 68.0024 224.76 65.4772C219.826 63.295 215.513 61.2062 215.513 56.187C215.513 51.1679 219.826 48.518 225.908 48.518C231.99 48.518 236.644 51.5108 237.792 56.717H232.672C232.145 52.5707 230.035 49.5156 225.66 49.5156C221.285 49.5156 220.261 51.2926 220.261 53.9113C220.261 56.53 223.302 58.8057 228.173 60.9568C233.448 63.2638 238.103 65.5084 238.103 70.6523C238.103 75.7961 233.324 78.7266 227.087 78.7266C220.85 78.7266 214.613 74.6427 213.806 68.5635" fill="#15263E"/>
<path d="M243.905 69.1247V50.8249H238.165V49.4844H243.905V41.8777L249.366 37.5444H249.77V49.4844H259.234V50.8249H249.77V69C249.77 74.0192 251.445 75.3597 254.145 75.3597C256.844 75.3597 259.079 73.5204 260.568 69.7482L261.096 70.2158C259.079 75.7026 255.479 78.2902 251.663 78.2902C247.846 78.2902 243.905 76.2014 243.905 69.1247Z" fill="#15263E"/>
<path d="M269.908 34.1775H272.329C272.949 34.1775 273.415 34.3957 273.725 34.7386C273.973 35.0192 274.128 35.4245 274.128 35.8609C274.128 36.9209 273.508 37.5755 272.235 37.5755H270.653V40.0384H269.908V34.1775ZM270.653 36.9832H272.173C273.011 36.9832 273.384 36.5779 273.384 35.8921C273.384 35.2062 272.949 34.8321 272.204 34.8321H270.622V36.9832H270.653Z" fill="#15263E"/>
<path d="M274.376 37.9185C274.376 36.7026 275.183 35.6739 276.362 35.6739C277.542 35.6739 278.317 36.6715 278.317 38.0743H275.059C275.121 38.9472 275.587 39.6019 276.424 39.6019C277.262 39.6019 277.448 39.3213 277.604 38.729H278.255C278.069 39.6331 277.386 40.1631 276.455 40.1631C275.525 40.1631 274.407 39.1655 274.407 37.9185M275.09 37.5755H277.635C277.604 36.7338 277.169 36.2038 276.393 36.2038C275.618 36.2038 275.183 36.7962 275.09 37.5755Z" fill="#15263E"/>
<path d="M279.652 36.3597C279.962 35.9544 280.365 35.705 280.986 35.705C281.855 35.705 282.413 36.2038 282.413 37.0768V40.0696H281.762V37.1391C281.762 36.5779 281.389 36.2662 280.8 36.2662C280.21 36.2662 279.652 36.7338 279.652 37.4509V40.0696H279V35.8297H279.652V36.3909V36.3597Z" fill="#15263E"/>
<path d="M283.034 38.6355H283.716C283.809 39.3837 284.306 39.5708 284.927 39.5708C285.547 39.5708 285.919 39.259 285.919 38.8849C285.919 38.5108 285.578 38.2926 284.802 38.1367C283.965 37.9497 283.22 37.7938 283.22 36.8585C283.22 35.9233 283.747 35.705 284.74 35.705C285.733 35.705 286.292 36.2038 286.385 37.0456H285.702C285.64 36.4844 285.33 36.235 284.709 36.235C284.089 36.235 283.871 36.5156 283.871 36.8274C283.871 37.1391 284.275 37.3885 285.02 37.5132C285.857 37.7003 286.571 37.8873 286.571 38.8537C286.571 39.8202 285.888 40.1319 284.895 40.1319C283.903 40.1319 283.096 39.5708 283.034 38.6355Z" fill="#15263E"/>
<path d="M287.192 34.1775H287.843V34.988H287.192V34.1775ZM287.192 35.7986H287.843V40.0384H287.192V35.7986Z" fill="#15263E"/>
<path d="M288.526 37.9185C288.526 36.7026 289.302 35.6739 290.574 35.6739C291.846 35.6739 292.622 36.6715 292.622 37.9185C292.622 39.1655 291.846 40.1631 290.574 40.1631C289.302 40.1631 288.526 39.1655 288.526 37.9185ZM291.908 37.9185C291.908 36.9832 291.443 36.235 290.543 36.235C289.643 36.235 289.178 36.9832 289.178 37.9185C289.178 38.8537 289.643 39.6019 290.543 39.6019C291.443 39.6019 291.908 38.8537 291.908 37.9185Z" fill="#15263E"/>
<path d="M293.925 36.3597C294.235 35.9544 294.639 35.705 295.259 35.705C296.128 35.705 296.687 36.2038 296.687 37.0768V40.0696H296.035V37.1391C296.035 36.5779 295.663 36.2662 295.073 36.2662C294.484 36.2662 293.925 36.7338 293.925 37.4509V40.0696H293.273V35.8297H293.925V36.3909V36.3597Z" fill="#15263E"/>
<path d="M269.908 43H273.88V43.6235H270.653V45.4628H273.353V46.0863H270.653V48.8609H269.908V43Z" fill="#15263E"/>
<path d="M276.952 48.8609V48.2686C276.641 48.6739 276.3 48.9544 275.68 48.9544C275.059 48.9544 274.252 48.4245 274.252 47.5515V44.6211H274.904V47.5515C274.904 48.1127 275.245 48.4245 275.866 48.4245C276.486 48.4245 276.983 47.9257 276.983 47.2398V44.6211H277.634V48.8609H276.983H276.952Z" fill="#15263E"/>
<path d="M279.155 45.1823C279.465 44.777 279.869 44.5276 280.489 44.5276C281.358 44.5276 281.917 45.0264 281.917 45.8993V48.8921H281.265V45.9616C281.265 45.4005 280.893 45.0887 280.303 45.0887C279.714 45.0887 279.155 45.5564 279.155 46.2734V48.8921H278.503V44.6523H279.155V45.2134V45.1823Z" fill="#15263E"/>
<path d="M282.568 46.741C282.568 45.3381 283.375 44.4964 284.43 44.4964C285.485 44.4964 285.485 44.777 285.764 45.1822V42.9688H286.416V48.8297H285.764V48.2997C285.454 48.705 285.051 48.9544 284.461 48.9544C283.313 48.9544 282.599 48.0815 282.599 46.7098M285.826 46.741C285.826 45.7434 285.361 45.0575 284.492 45.0575C283.623 45.0575 283.282 45.7746 283.282 46.741C283.282 47.7074 283.685 48.3933 284.492 48.3933C285.299 48.3933 285.826 47.6762 285.826 46.741Z" fill="#15263E"/>
<path d="M78.5165 30V46.1487L75.1032 30H72.9932L76.4995 46.6163L69.1455 30H66.8803L74.6067 47.458L61.9776 30H59.4332L72.9621 48.705L52.3273 30.0312C51.3965 30.0623 50.4656 30.1871 49.5657 30.3118L71.5968 50.2326L41.6841 32.8993C40.9704 33.2734 40.2878 33.6787 39.6051 34.0839L70.5418 52.0408L33.244 39.8513C32.8096 40.4125 32.3752 41.0048 31.9718 41.6283L69.9212 54.0048L28.4344 49.6403C28.2793 50.295 28.1241 50.9808 28 51.6667L69.704 56.0623L28.031 60.458C28.1551 61.1439 28.2793 61.8297 28.4654 62.4844L69.9523 58.1199L32.0649 70.4964C32.4683 71.0887 32.9027 71.6811 33.3682 72.2422L70.6349 60.0839L39.7603 77.9784C40.4429 78.4149 41.1256 78.789 41.8393 79.1631L71.6899 61.8609L49.7519 81.7194C50.6828 81.8441 51.6137 81.9376 52.5446 81.9688L73.0863 63.3885L59.6504 82H62.1948L74.7619 64.6043L67.0665 82H69.3317L76.6857 65.446L73.1794 82H75.2894L78.5785 66.506V82H80.6265V56.8417V56.5611V30H78.5785H78.5165Z" fill="#15263E"/>
<path d="M601.876 230V209.98H610.36C612.469 209.98 614.075 210.559 615.176 211.716C616.035 212.612 616.464 213.751 616.464 215.132C616.464 217.26 615.391 218.66 613.244 219.332V219.416C614.439 219.696 615.409 220.256 616.156 221.096C616.903 221.917 617.276 222.972 617.276 224.26C617.276 225.791 616.791 227.069 615.82 228.096C614.644 229.365 612.973 230 610.808 230H601.876ZM604.396 227.732H610.696C612.077 227.732 613.123 227.396 613.832 226.724C614.429 226.089 614.728 225.315 614.728 224.4C614.728 223.187 614.345 222.263 613.58 221.628C612.815 220.993 611.797 220.676 610.528 220.676H604.396V227.732ZM604.396 218.548H610.052C611.265 218.548 612.217 218.259 612.908 217.68C613.599 217.101 613.944 216.299 613.944 215.272C613.944 214.301 613.627 213.545 612.992 213.004C612.376 212.444 611.508 212.164 610.388 212.164H604.396V218.548ZM631.04 230H628.772V228.012H628.716C627.577 229.561 626.121 230.336 624.348 230.336C622.854 230.336 621.669 229.916 620.792 229.076C619.914 228.217 619.476 227.041 619.476 225.548V215.524H621.744V225.492C621.744 226.425 622.024 227.153 622.584 227.676C623.162 228.199 623.965 228.46 624.992 228.46C626.13 228.46 627.045 228.077 627.736 227.312C628.426 226.547 628.772 225.585 628.772 224.428V215.524H631.04V230ZM634.106 230V215.524H636.374V230H634.106ZM634.106 212.78V209.98H636.374V212.78H634.106ZM639.55 230V209.98H641.818V230H639.55ZM650.589 230.42C648.611 230.42 647.043 229.739 645.885 228.376C644.747 226.995 644.177 225.137 644.177 222.804C644.177 220.452 644.775 218.595 645.969 217.232C647.164 215.869 648.685 215.188 650.533 215.188C652.493 215.188 654.005 215.981 655.069 217.568H655.125V209.98H657.393V230H655.125V228.236H655.069C653.931 229.692 652.437 230.42 650.589 230.42ZM650.673 228.516C652.223 228.516 653.371 228.003 654.117 226.976C654.883 225.949 655.265 224.568 655.265 222.832C655.265 221.115 654.855 219.733 654.033 218.688C653.231 217.643 652.101 217.12 650.645 217.12C649.32 217.12 648.293 217.652 647.565 218.716C646.856 219.761 646.501 221.133 646.501 222.832C646.501 224.531 646.856 225.903 647.565 226.948C648.293 227.993 649.329 228.516 650.673 228.516ZM660.466 230V215.524H662.734V230H660.466ZM660.466 212.78V209.98H662.734V212.78H660.466ZM668.093 215.524V217.428H668.149C669.269 215.935 670.8 215.188 672.741 215.188C674.272 215.188 675.466 215.589 676.325 216.392C677.184 217.195 677.613 218.343 677.613 219.836V230H675.345V220.032C675.345 219.099 675.056 218.38 674.477 217.876C673.898 217.353 673.096 217.092 672.069 217.092C670.912 217.092 669.96 217.465 669.213 218.212C668.466 218.959 668.093 219.92 668.093 221.096V230H665.825V215.524H668.093ZM686.386 234.816C684.538 234.816 683.082 234.461 682.018 233.752C680.973 233.061 680.385 232.081 680.254 230.812H682.354C682.559 232.287 683.885 233.024 686.33 233.024C689.093 233.024 690.474 231.783 690.474 229.3V227.256H690.418C689.839 228.003 689.223 228.563 688.57 228.936C687.917 229.309 687.105 229.496 686.134 229.496C684.267 229.496 682.746 228.824 681.57 227.48C680.394 226.136 679.806 224.419 679.806 222.328C679.806 220.144 680.394 218.408 681.57 217.12C682.765 215.832 684.239 215.188 685.994 215.188C687.898 215.188 689.373 215.916 690.418 217.372H690.474V215.524H692.742V229.216C692.742 231.064 692.173 232.455 691.034 233.388C689.914 234.34 688.365 234.816 686.386 234.816ZM686.246 227.592C689.177 227.592 690.642 225.8 690.642 222.216C690.642 218.8 689.167 217.092 686.218 217.092C684.893 217.092 683.875 217.568 683.166 218.52C682.475 219.472 682.13 220.751 682.13 222.356C682.13 223.961 682.485 225.24 683.194 226.192C683.903 227.125 684.921 227.592 686.246 227.592ZM702.126 234.788C701.268 234.788 700.586 234.685 700.082 234.48V232.464H700.194C700.568 232.669 701.081 232.772 701.734 232.772C702.238 232.772 702.658 232.641 702.994 232.38C703.33 232.137 703.629 231.68 703.89 231.008L704.45 229.58L698.794 215.524H701.258L704.674 224.54L705.654 227.368H705.71C706.046 226.285 706.364 225.343 706.662 224.54L709.966 215.524H712.374L706.186 231.176C705.626 232.595 705.048 233.547 704.45 234.032C703.853 234.536 703.078 234.788 702.126 234.788ZM724.96 228.208C723.691 229.664 722.001 230.392 719.892 230.392C717.783 230.392 716.084 229.664 714.796 228.208C713.527 226.752 712.892 224.941 712.892 222.776C712.892 220.611 713.527 218.8 714.796 217.344C716.084 215.888 717.783 215.16 719.892 215.16C722.001 215.16 723.691 215.888 724.96 217.344C726.229 218.8 726.864 220.611 726.864 222.776C726.864 224.941 726.229 226.752 724.96 228.208ZM716.42 226.892C717.241 227.956 718.399 228.488 719.892 228.488C721.385 228.488 722.533 227.956 723.336 226.892C724.139 225.809 724.54 224.437 724.54 222.776C724.54 221.096 724.129 219.724 723.308 218.66C722.505 217.577 721.367 217.036 719.892 217.036C718.399 217.036 717.241 217.577 716.42 218.66C715.617 219.743 715.216 221.115 715.216 222.776C715.216 224.437 715.617 225.809 716.42 226.892ZM740.606 230H738.338V228.012H738.282C737.143 229.561 735.687 230.336 733.914 230.336C732.421 230.336 731.235 229.916 730.358 229.076C729.481 228.217 729.042 227.041 729.042 225.548V215.524H731.31V225.492C731.31 226.425 731.59 227.153 732.15 227.676C732.729 228.199 733.531 228.46 734.558 228.46C735.697 228.46 736.611 228.077 737.302 227.312C737.993 226.547 738.338 225.585 738.338 224.428V215.524H740.606V230ZM745.941 215.524V217.932H745.997C746.463 217.167 747.07 216.551 747.817 216.084C748.563 215.599 749.394 215.356 750.309 215.356C750.645 215.356 750.953 215.412 751.233 215.524V217.708H751.149C750.869 217.615 750.533 217.568 750.141 217.568C748.983 217.568 747.994 217.979 747.173 218.8C746.351 219.603 745.941 220.657 745.941 221.964V230H743.673V215.524H745.941ZM756.804 217.372V215.524H758.792V213.2C758.792 212.005 759.118 211.147 759.772 210.624C760.425 210.083 761.377 209.812 762.628 209.812C762.982 209.812 763.365 209.831 763.776 209.868V211.8C763.514 211.781 763.272 211.772 763.048 211.772C762.32 211.772 761.806 211.884 761.508 212.108C761.209 212.332 761.06 212.733 761.06 213.312V215.524H763.748V217.372H761.06V230H758.792V217.372H756.804ZM765.68 230V215.524H767.948V230H765.68ZM765.68 212.78V209.98H767.948V212.78H765.68ZM773.285 215.524V217.428H773.341C774.461 215.935 775.991 215.188 777.933 215.188C779.463 215.188 780.658 215.589 781.517 216.392C782.375 217.195 782.805 218.343 782.805 219.836V230H780.537V220.032C780.537 219.099 780.247 218.38 779.669 217.876C779.09 217.353 778.287 217.092 777.261 217.092C776.103 217.092 775.151 217.465 774.405 218.212C773.658 218.959 773.285 219.92 773.285 221.096V230H771.017V215.524H773.285ZM797.178 230.14C795.74 230.14 794.91 229.421 794.686 227.984H794.658C793.463 229.515 791.858 230.28 789.842 230.28C788.404 230.28 787.228 229.935 786.314 229.244C785.399 228.553 784.942 227.555 784.942 226.248C784.942 225.576 785.044 224.997 785.25 224.512C785.474 224.008 785.754 223.607 786.09 223.308C786.426 222.991 786.883 222.72 787.462 222.496C788.059 222.253 788.628 222.076 789.17 221.964C789.711 221.833 790.402 221.703 791.242 221.572C791.783 221.497 792.166 221.441 792.39 221.404C792.632 221.348 792.94 221.273 793.314 221.18C793.687 221.068 793.948 220.947 794.098 220.816C794.247 220.685 794.387 220.508 794.518 220.284C794.648 220.06 794.714 219.799 794.714 219.5C794.714 218.679 794.424 218.053 793.846 217.624C793.286 217.176 792.492 216.952 791.466 216.952C789.132 216.952 787.928 218.016 787.854 220.144H785.67C785.707 218.669 786.211 217.484 787.182 216.588C788.171 215.692 789.59 215.244 791.438 215.244C795.003 215.244 796.786 216.775 796.786 219.836V226.724C796.786 227.359 796.888 227.807 797.094 228.068C797.318 228.329 797.728 228.395 798.326 228.264H798.41V229.916C798.036 230.065 797.626 230.14 797.178 230.14ZM790.346 228.544C791.746 228.544 792.828 228.143 793.594 227.34C794.359 226.519 794.742 225.623 794.742 224.652V222.188C794.051 222.617 792.95 222.972 791.438 223.252C790.878 223.364 790.439 223.457 790.122 223.532C789.804 223.588 789.44 223.7 789.03 223.868C788.619 224.017 788.311 224.185 788.106 224.372C787.9 224.559 787.723 224.811 787.574 225.128C787.424 225.427 787.35 225.781 787.35 226.192C787.35 227.76 788.348 228.544 790.346 228.544ZM802.351 215.524V217.428H802.407C803.527 215.935 805.058 215.188 806.999 215.188C808.53 215.188 809.724 215.589 810.583 216.392C811.442 217.195 811.871 218.343 811.871 219.836V230H809.603V220.032C809.603 219.099 809.314 218.38 808.735 217.876C808.156 217.353 807.354 217.092 806.327 217.092C805.17 217.092 804.218 217.465 803.471 218.212C802.724 218.959 802.351 219.92 802.351 221.096V230H800.083V215.524H802.351ZM821.064 230.392C818.955 230.392 817.256 229.664 815.968 228.208C814.699 226.752 814.064 224.941 814.064 222.776C814.064 220.611 814.699 218.8 815.968 217.344C817.256 215.888 818.955 215.16 821.064 215.16C822.763 215.16 824.153 215.617 825.236 216.532C826.319 217.428 826.991 218.651 827.252 220.2H824.956C824.788 219.211 824.368 218.436 823.696 217.876C823.024 217.316 822.147 217.036 821.064 217.036C819.571 217.036 818.413 217.577 817.592 218.66C816.789 219.743 816.388 221.115 816.388 222.776C816.388 224.437 816.789 225.809 817.592 226.892C818.413 227.956 819.571 228.488 821.064 228.488C822.221 228.488 823.145 228.18 823.836 227.564C824.527 226.929 824.919 226.043 825.012 224.904H827.252C827.103 226.64 826.487 227.993 825.404 228.964C824.321 229.916 822.875 230.392 821.064 230.392ZM829.395 230V215.524H831.663V230H829.395ZM829.395 212.78V209.98H831.663V212.78H829.395ZM846.123 230.14C844.686 230.14 843.855 229.421 843.631 227.984H843.603C842.408 229.515 840.803 230.28 838.787 230.28C837.35 230.28 836.174 229.935 835.259 229.244C834.344 228.553 833.887 227.555 833.887 226.248C833.887 225.576 833.99 224.997 834.195 224.512C834.419 224.008 834.699 223.607 835.035 223.308C835.371 222.991 835.828 222.72 836.407 222.496C837.004 222.253 837.574 222.076 838.115 221.964C838.656 221.833 839.347 221.703 840.187 221.572C840.728 221.497 841.111 221.441 841.335 221.404C841.578 221.348 841.886 221.273 842.259 221.18C842.632 221.068 842.894 220.947 843.043 220.816C843.192 220.685 843.332 220.508 843.463 220.284C843.594 220.06 843.659 219.799 843.659 219.5C843.659 218.679 843.37 218.053 842.791 217.624C842.231 217.176 841.438 216.952 840.411 216.952C838.078 216.952 836.874 218.016 836.799 220.144H834.615C834.652 218.669 835.156 217.484 836.127 216.588C837.116 215.692 838.535 215.244 840.383 215.244C843.948 215.244 845.731 216.775 845.731 219.836V226.724C845.731 227.359 845.834 227.807 846.039 228.068C846.263 228.329 846.674 228.395 847.271 228.264H847.355V229.916C846.982 230.065 846.571 230.14 846.123 230.14ZM839.291 228.544C840.691 228.544 841.774 228.143 842.539 227.34C843.304 226.519 843.687 225.623 843.687 224.652V222.188C842.996 222.617 841.895 222.972 840.383 223.252C839.823 223.364 839.384 223.457 839.067 223.532C838.75 223.588 838.386 223.7 837.975 223.868C837.564 224.017 837.256 224.185 837.051 224.372C836.846 224.559 836.668 224.811 836.519 225.128C836.37 225.427 836.295 225.781 836.295 226.192C836.295 227.76 837.294 228.544 839.291 228.544ZM849.112 230V209.98H851.38V230H849.112ZM864.497 230.42C862.518 230.42 860.978 229.981 859.877 229.104C858.794 228.208 858.197 226.939 858.085 225.296H860.409C860.67 227.443 862.051 228.516 864.553 228.516C865.691 228.516 866.531 228.301 867.073 227.872C867.633 227.424 867.913 226.845 867.913 226.136C867.913 225.371 867.642 224.82 867.101 224.484C866.559 224.148 865.57 223.831 864.133 223.532C863.535 223.401 863.059 223.299 862.705 223.224C862.369 223.131 861.958 223.009 861.473 222.86C860.987 222.692 860.605 222.515 860.325 222.328C860.063 222.123 859.793 221.88 859.513 221.6C859.233 221.32 859.027 220.975 858.897 220.564C858.785 220.153 858.729 219.696 858.729 219.192C858.729 217.96 859.177 216.989 860.073 216.28C860.987 215.571 862.275 215.216 863.937 215.216C867.371 215.216 869.266 216.728 869.621 219.752H867.297C867.185 218.8 866.858 218.109 866.317 217.68C865.775 217.232 864.963 217.008 863.881 217.008C862.891 217.008 862.154 217.204 861.669 217.596C861.202 217.969 860.969 218.464 860.969 219.08C860.969 219.789 861.249 220.293 861.809 220.592C862.369 220.872 863.386 221.161 864.861 221.46C865.757 221.647 866.457 221.824 866.961 221.992C867.483 222.141 868.025 222.384 868.585 222.72C869.145 223.037 869.555 223.467 869.817 224.008C870.078 224.549 870.209 225.221 870.209 226.024C870.209 227.443 869.686 228.535 868.641 229.3C867.595 230.047 866.214 230.42 864.497 230.42ZM878.841 230.392C876.695 230.392 874.987 229.673 873.717 228.236C872.467 226.78 871.841 224.96 871.841 222.776C871.841 220.629 872.476 218.828 873.745 217.372C875.033 215.897 876.685 215.16 878.701 215.16C880.829 215.16 882.472 215.907 883.629 217.4C884.787 218.875 885.365 220.844 885.365 223.308H874.165C874.259 224.839 874.707 226.089 875.509 227.06C876.331 228.012 877.441 228.488 878.841 228.488C881.007 228.488 882.341 227.499 882.845 225.52H885.057C884.721 227.069 884.012 228.273 882.929 229.132C881.847 229.972 880.484 230.392 878.841 230.392ZM881.725 218.184C880.997 217.363 879.989 216.952 878.701 216.952C877.413 216.952 876.387 217.381 875.621 218.24C874.875 219.099 874.408 220.219 874.221 221.6H882.929C882.855 220.144 882.453 219.005 881.725 218.184ZM893.771 230.392C891.662 230.392 889.963 229.664 888.675 228.208C887.406 226.752 886.771 224.941 886.771 222.776C886.771 220.611 887.406 218.8 888.675 217.344C889.963 215.888 891.662 215.16 893.771 215.16C895.47 215.16 896.86 215.617 897.943 216.532C899.026 217.428 899.698 218.651 899.959 220.2H897.663C897.495 219.211 897.075 218.436 896.403 217.876C895.731 217.316 894.854 217.036 893.771 217.036C892.278 217.036 891.12 217.577 890.299 218.66C889.496 219.743 889.095 221.115 889.095 222.776C889.095 224.437 889.496 225.809 890.299 226.892C891.12 227.956 892.278 228.488 893.771 228.488C894.928 228.488 895.852 228.18 896.543 227.564C897.234 226.929 897.626 226.043 897.719 224.904H899.959C899.81 226.64 899.194 227.993 898.111 228.964C897.028 229.916 895.582 230.392 893.771 230.392ZM913.583 230H911.315V228.012H911.259C910.12 229.561 908.664 230.336 906.891 230.336C905.397 230.336 904.212 229.916 903.335 229.076C902.457 228.217 902.019 227.041 902.019 225.548V215.524H904.287V225.492C904.287 226.425 904.567 227.153 905.127 227.676C905.705 228.199 906.508 228.46 907.535 228.46C908.673 228.46 909.588 228.077 910.279 227.312C910.969 226.547 911.315 225.585 911.315 224.428V215.524H913.583V230ZM918.917 215.524V217.932H918.973C919.44 217.167 920.047 216.551 920.793 216.084C921.54 215.599 922.371 215.356 923.285 215.356C923.621 215.356 923.929 215.412 924.209 215.524V217.708H924.125C923.845 217.615 923.509 217.568 923.117 217.568C921.96 217.568 920.971 217.979 920.149 218.8C919.328 219.603 918.917 220.657 918.917 221.964V230H916.649V215.524H918.917ZM926.247 230V215.524H928.515V230H926.247ZM926.247 212.78V209.98H928.515V212.78H926.247ZM930.682 217.372V215.524H932.782V210.96H935.05V215.524H937.85V217.372H935.05V226.78C935.05 227.676 935.536 228.124 936.506 228.124C936.917 228.124 937.318 228.059 937.71 227.928H937.794V229.888C937.178 230.019 936.572 230.084 935.974 230.084C933.846 230.084 932.782 229.151 932.782 227.284V217.372H930.682ZM942.04 234.788C941.182 234.788 940.5 234.685 939.996 234.48V232.464H940.108C940.482 232.669 940.995 232.772 941.648 232.772C942.152 232.772 942.572 232.641 942.908 232.38C943.244 232.137 943.543 231.68 943.804 231.008L944.364 229.58L938.708 215.524H941.172L944.588 224.54L945.568 227.368H945.624C945.96 226.285 946.278 225.343 946.576 224.54L949.88 215.524H952.288L946.1 231.176C945.54 232.595 944.962 233.547 944.364 234.032C943.767 234.536 942.992 234.788 942.04 234.788Z" fill="white"/>
<path d="M257.835 156L249.867 133.12H252.971L258.603 150.144L259.499 153.216H259.563C259.926 151.851 260.224 150.827 260.459 150.144L266.027 133.12H269.035L261.003 156H257.835ZM272.899 139.456V142.208H272.963C273.496 141.333 274.19 140.629 275.043 140.096C275.896 139.541 276.846 139.264 277.891 139.264C278.275 139.264 278.627 139.328 278.947 139.456V141.952H278.851C278.531 141.845 278.147 141.792 277.699 141.792C276.376 141.792 275.246 142.261 274.307 143.2C273.368 144.117 272.899 145.323 272.899 146.816V156H270.307V139.456H272.899ZM293.643 156.16C292 156.16 291.051 155.339 290.795 153.696H290.763C289.397 155.445 287.563 156.32 285.259 156.32C283.616 156.32 282.272 155.925 281.227 155.136C280.181 154.347 279.659 153.205 279.659 151.712C279.659 150.944 279.776 150.283 280.011 149.728C280.267 149.152 280.587 148.693 280.971 148.352C281.355 147.989 281.877 147.68 282.539 147.424C283.221 147.147 283.872 146.944 284.491 146.816C285.109 146.667 285.899 146.517 286.859 146.368C287.477 146.283 287.915 146.219 288.171 146.176C288.448 146.112 288.8 146.027 289.227 145.92C289.653 145.792 289.952 145.653 290.123 145.504C290.293 145.355 290.453 145.152 290.603 144.896C290.752 144.64 290.827 144.341 290.827 144C290.827 143.061 290.496 142.347 289.835 141.856C289.195 141.344 288.288 141.088 287.115 141.088C284.448 141.088 283.072 142.304 282.987 144.736H280.491C280.533 143.051 281.109 141.696 282.219 140.672C283.349 139.648 284.971 139.136 287.083 139.136C291.157 139.136 293.195 140.885 293.195 144.384V152.256C293.195 152.981 293.312 153.493 293.547 153.792C293.803 154.091 294.272 154.165 294.955 154.016H295.051V155.904C294.624 156.075 294.155 156.16 293.643 156.16ZM285.835 154.336C287.435 154.336 288.672 153.877 289.547 152.96C290.421 152.021 290.859 150.997 290.859 149.888V147.072C290.069 147.563 288.811 147.968 287.083 148.288C286.443 148.416 285.941 148.523 285.579 148.608C285.216 148.672 284.8 148.8 284.331 148.992C283.861 149.163 283.509 149.355 283.275 149.568C283.04 149.781 282.837 150.069 282.667 150.432C282.496 150.773 282.411 151.179 282.411 151.648C282.411 153.44 283.552 154.336 285.835 154.336ZM309.955 156.16C308.312 156.16 307.363 155.339 307.107 153.696H307.075C305.71 155.445 303.875 156.32 301.571 156.32C299.928 156.32 298.584 155.925 297.539 155.136C296.494 154.347 295.971 153.205 295.971 151.712C295.971 150.944 296.088 150.283 296.323 149.728C296.579 149.152 296.899 148.693 297.283 148.352C297.667 147.989 298.19 147.68 298.851 147.424C299.534 147.147 300.184 146.944 300.803 146.816C301.422 146.667 302.211 146.517 303.171 146.368C303.79 146.283 304.227 146.219 304.483 146.176C304.76 146.112 305.112 146.027 305.539 145.92C305.966 145.792 306.264 145.653 306.435 145.504C306.606 145.355 306.766 145.152 306.915 144.896C307.064 144.64 307.139 144.341 307.139 144C307.139 143.061 306.808 142.347 306.147 141.856C305.507 141.344 304.6 141.088 303.427 141.088C300.76 141.088 299.384 142.304 299.299 144.736H296.803C296.846 143.051 297.422 141.696 298.531 140.672C299.662 139.648 301.283 139.136 303.395 139.136C307.47 139.136 309.507 140.885 309.507 144.384V152.256C309.507 152.981 309.624 153.493 309.859 153.792C310.115 154.091 310.584 154.165 311.267 154.016H311.363V155.904C310.936 156.075 310.467 156.16 309.955 156.16ZM302.147 154.336C303.747 154.336 304.984 153.877 305.859 152.96C306.734 152.021 307.171 150.997 307.171 149.888V147.072C306.382 147.563 305.123 147.968 303.395 148.288C302.755 148.416 302.254 148.523 301.891 148.608C301.528 148.672 301.112 148.8 300.643 148.992C300.174 149.163 299.822 149.355 299.587 149.568C299.352 149.781 299.15 150.069 298.979 150.432C298.808 150.773 298.723 151.179 298.723 151.648C298.723 153.44 299.864 154.336 302.147 154.336ZM319.868 161.504C317.756 161.504 316.092 161.099 314.876 160.288C313.681 159.499 313.009 158.379 312.86 156.928H315.26C315.494 158.613 317.009 159.456 319.804 159.456C322.961 159.456 324.54 158.037 324.54 155.2V152.864H324.476C323.814 153.717 323.11 154.357 322.364 154.784C321.617 155.211 320.689 155.424 319.58 155.424C317.446 155.424 315.708 154.656 314.364 153.12C313.02 151.584 312.348 149.621 312.348 147.232C312.348 144.736 313.02 142.752 314.364 141.28C315.729 139.808 317.414 139.072 319.42 139.072C321.596 139.072 323.281 139.904 324.476 141.568H324.54V139.456H327.132V155.104C327.132 157.216 326.481 158.805 325.18 159.872C323.9 160.96 322.129 161.504 319.868 161.504ZM319.708 153.248C323.057 153.248 324.732 151.2 324.732 147.104C324.732 143.2 323.046 141.248 319.676 141.248C318.161 141.248 316.998 141.792 316.188 142.88C315.398 143.968 315.004 145.429 315.004 147.264C315.004 149.099 315.409 150.56 316.22 151.648C317.03 152.715 318.193 153.248 319.708 153.248ZM339.84 156L334.048 139.456H336.832L340.256 149.952L341.344 153.44H341.408C341.814 152.075 342.176 150.912 342.496 149.952L345.984 139.456H348.672L342.72 156H339.84ZM363.018 156.16C361.375 156.16 360.426 155.339 360.17 153.696H360.138C358.772 155.445 356.938 156.32 354.634 156.32C352.991 156.32 351.647 155.925 350.602 155.136C349.556 154.347 349.034 153.205 349.034 151.712C349.034 150.944 349.151 150.283 349.386 149.728C349.642 149.152 349.962 148.693 350.346 148.352C350.73 147.989 351.252 147.68 351.914 147.424C352.596 147.147 353.247 146.944 353.866 146.816C354.484 146.667 355.274 146.517 356.234 146.368C356.852 146.283 357.29 146.219 357.546 146.176C357.823 146.112 358.175 146.027 358.602 145.92C359.028 145.792 359.327 145.653 359.498 145.504C359.668 145.355 359.828 145.152 359.978 144.896C360.127 144.64 360.202 144.341 360.202 144C360.202 143.061 359.871 142.347 359.21 141.856C358.57 141.344 357.663 141.088 356.49 141.088C353.823 141.088 352.447 142.304 352.362 144.736H349.866C349.908 143.051 350.484 141.696 351.594 140.672C352.724 139.648 354.346 139.136 356.458 139.136C360.532 139.136 362.57 140.885 362.57 144.384V152.256C362.57 152.981 362.687 153.493 362.922 153.792C363.178 154.091 363.647 154.165 364.33 154.016H364.426V155.904C363.999 156.075 363.53 156.16 363.018 156.16ZM355.21 154.336C356.81 154.336 358.047 153.877 358.922 152.96C359.796 152.021 360.234 150.997 360.234 149.888V147.072C359.444 147.563 358.186 147.968 356.458 148.288C355.818 148.416 355.316 148.523 354.954 148.608C354.591 148.672 354.175 148.8 353.706 148.992C353.236 149.163 352.884 149.355 352.65 149.568C352.415 149.781 352.212 150.069 352.042 150.432C351.871 150.773 351.786 151.179 351.786 151.648C351.786 153.44 352.927 154.336 355.21 154.336ZM368.93 139.456V141.632H368.994C370.274 139.925 372.023 139.072 374.242 139.072C375.991 139.072 377.357 139.531 378.338 140.448C379.319 141.365 379.81 142.677 379.81 144.384V156H377.218V144.608C377.218 143.541 376.887 142.72 376.226 142.144C375.565 141.547 374.647 141.248 373.474 141.248C372.151 141.248 371.063 141.675 370.21 142.528C369.357 143.381 368.93 144.48 368.93 145.824V156H366.338V139.456H368.93ZM389.644 156.48C387.383 156.48 385.591 155.701 384.268 154.144C382.967 152.565 382.316 150.443 382.316 147.776C382.316 145.088 382.999 142.965 384.364 141.408C385.73 139.851 387.468 139.072 389.58 139.072C391.82 139.072 393.548 139.979 394.764 141.792H394.828V133.12H397.42V156H394.828V153.984H394.764C393.463 155.648 391.756 156.48 389.644 156.48ZM389.74 154.304C391.511 154.304 392.823 153.717 393.676 152.544C394.551 151.371 394.988 149.792 394.988 147.808C394.988 145.845 394.519 144.267 393.58 143.072C392.663 141.877 391.372 141.28 389.708 141.28C388.194 141.28 387.02 141.888 386.188 143.104C385.378 144.299 384.972 145.867 384.972 147.808C384.972 149.749 385.378 151.317 386.188 152.512C387.02 153.707 388.204 154.304 389.74 154.304ZM413.924 156.16C412.281 156.16 411.332 155.339 411.076 153.696H411.044C409.679 155.445 407.844 156.32 405.54 156.32C403.897 156.32 402.553 155.925 401.508 155.136C400.463 154.347 399.94 153.205 399.94 151.712C399.94 150.944 400.057 150.283 400.292 149.728C400.548 149.152 400.868 148.693 401.252 148.352C401.636 147.989 402.159 147.68 402.82 147.424C403.503 147.147 404.153 146.944 404.772 146.816C405.391 146.667 406.18 146.517 407.14 146.368C407.759 146.283 408.196 146.219 408.452 146.176C408.729 146.112 409.081 146.027 409.508 145.92C409.935 145.792 410.233 145.653 410.404 145.504C410.575 145.355 410.735 145.152 410.884 144.896C411.033 144.64 411.108 144.341 411.108 144C411.108 143.061 410.777 142.347 410.116 141.856C409.476 141.344 408.569 141.088 407.396 141.088C404.729 141.088 403.353 142.304 403.268 144.736H400.772C400.815 143.051 401.391 141.696 402.5 140.672C403.631 139.648 405.252 139.136 407.364 139.136C411.439 139.136 413.476 140.885 413.476 144.384V152.256C413.476 152.981 413.593 153.493 413.828 153.792C414.084 154.091 414.553 154.165 415.236 154.016H415.332V155.904C414.905 156.075 414.436 156.16 413.924 156.16ZM406.116 154.336C407.716 154.336 408.953 153.877 409.828 152.96C410.703 152.021 411.14 150.997 411.14 149.888V147.072C410.351 147.563 409.092 147.968 407.364 148.288C406.724 148.416 406.223 148.523 405.86 148.608C405.497 148.672 405.081 148.8 404.612 148.992C404.143 149.163 403.791 149.355 403.556 149.568C403.321 149.781 403.119 150.069 402.948 150.432C402.777 150.773 402.692 151.179 402.692 151.648C402.692 153.44 403.833 154.336 406.116 154.336ZM430.236 156.16C428.594 156.16 427.644 155.339 427.388 153.696H427.356C425.991 155.445 424.156 156.32 421.852 156.32C420.21 156.32 418.866 155.925 417.82 155.136C416.775 154.347 416.252 153.205 416.252 151.712C416.252 150.944 416.37 150.283 416.604 149.728C416.86 149.152 417.18 148.693 417.564 148.352C417.948 147.989 418.471 147.68 419.132 147.424C419.815 147.147 420.466 146.944 421.084 146.816C421.703 146.667 422.492 146.517 423.452 146.368C424.071 146.283 424.508 146.219 424.764 146.176C425.042 146.112 425.394 146.027 425.82 145.92C426.247 145.792 426.546 145.653 426.716 145.504C426.887 145.355 427.047 145.152 427.196 144.896C427.346 144.64 427.42 144.341 427.42 144C427.42 143.061 427.09 142.347 426.428 141.856C425.788 141.344 424.882 141.088 423.708 141.088C421.042 141.088 419.666 142.304 419.58 144.736H417.084C417.127 143.051 417.703 141.696 418.812 140.672C419.943 139.648 421.564 139.136 423.676 139.136C427.751 139.136 429.788 140.885 429.788 144.384V152.256C429.788 152.981 429.906 153.493 430.14 153.792C430.396 154.091 430.866 154.165 431.548 154.016H431.644V155.904C431.218 156.075 430.748 156.16 430.236 156.16ZM422.428 154.336C424.028 154.336 425.266 153.877 426.14 152.96C427.015 152.021 427.452 150.997 427.452 149.888V147.072C426.663 147.563 425.404 147.968 423.676 148.288C423.036 148.416 422.535 148.523 422.172 148.608C421.81 148.672 421.394 148.8 420.924 148.992C420.455 149.163 420.103 149.355 419.868 149.568C419.634 149.781 419.431 150.069 419.26 150.432C419.09 150.773 419.004 151.179 419.004 151.648C419.004 153.44 420.146 154.336 422.428 154.336ZM440.149 161.504C438.037 161.504 436.373 161.099 435.157 160.288C433.962 159.499 433.29 158.379 433.141 156.928H435.541C435.776 158.613 437.29 159.456 440.085 159.456C443.242 159.456 444.821 158.037 444.821 155.2V152.864H444.757C444.096 153.717 443.392 154.357 442.645 154.784C441.898 155.211 440.97 155.424 439.861 155.424C437.728 155.424 435.989 154.656 434.645 153.12C433.301 151.584 432.629 149.621 432.629 147.232C432.629 144.736 433.301 142.752 434.645 141.28C436.01 139.808 437.696 139.072 439.701 139.072C441.877 139.072 443.562 139.904 444.757 141.568H444.821V139.456H447.413V155.104C447.413 157.216 446.762 158.805 445.461 159.872C444.181 160.96 442.41 161.504 440.149 161.504ZM439.989 153.248C443.338 153.248 445.013 151.2 445.013 147.104C445.013 143.2 443.328 141.248 439.957 141.248C438.442 141.248 437.28 141.792 436.469 142.88C435.68 143.968 435.285 145.429 435.285 147.264C435.285 149.099 435.69 150.56 436.501 151.648C437.312 152.715 438.474 153.248 439.989 153.248ZM458.618 139.456V141.632H458.682C459.962 139.925 461.711 139.072 463.93 139.072C465.679 139.072 467.044 139.531 468.026 140.448C469.007 141.365 469.498 142.677 469.498 144.384V156H466.906V144.608C466.906 143.541 466.575 142.72 465.914 142.144C465.252 141.547 464.335 141.248 463.162 141.248C461.839 141.248 460.751 141.675 459.898 142.528C459.044 143.381 458.618 144.48 458.618 145.824V156H456.026V139.456H458.618ZM485.796 153.952C484.345 155.616 482.415 156.448 480.004 156.448C477.593 156.448 475.652 155.616 474.18 153.952C472.729 152.288 472.004 150.219 472.004 147.744C472.004 145.269 472.729 143.2 474.18 141.536C475.652 139.872 477.593 139.04 480.004 139.04C482.415 139.04 484.345 139.872 485.796 141.536C487.247 143.2 487.972 145.269 487.972 147.744C487.972 150.219 487.247 152.288 485.796 153.952ZM476.036 152.448C476.975 153.664 478.297 154.272 480.004 154.272C481.711 154.272 483.023 153.664 483.94 152.448C484.857 151.211 485.316 149.643 485.316 147.744C485.316 145.824 484.847 144.256 483.908 143.04C482.991 141.803 481.689 141.184 480.004 141.184C478.297 141.184 476.975 141.803 476.036 143.04C475.119 144.277 474.66 145.845 474.66 147.744C474.66 149.643 475.119 151.211 476.036 152.448ZM497.149 161.504C495.037 161.504 493.373 161.099 492.157 160.288C490.962 159.499 490.29 158.379 490.141 156.928H492.541C492.776 158.613 494.29 159.456 497.085 159.456C500.242 159.456 501.821 158.037 501.821 155.2V152.864H501.757C501.096 153.717 500.392 154.357 499.645 154.784C498.898 155.211 497.97 155.424 496.861 155.424C494.728 155.424 492.989 154.656 491.645 153.12C490.301 151.584 489.629 149.621 489.629 147.232C489.629 144.736 490.301 142.752 491.645 141.28C493.01 139.808 494.696 139.072 496.701 139.072C498.877 139.072 500.562 139.904 501.757 141.568H501.821V139.456H504.413V155.104C504.413 157.216 503.762 158.805 502.461 159.872C501.181 160.96 499.41 161.504 497.149 161.504ZM496.989 153.248C500.338 153.248 502.013 151.2 502.013 147.104C502.013 143.2 500.328 141.248 496.957 141.248C495.442 141.248 494.28 141.792 493.469 142.88C492.68 143.968 492.285 145.429 492.285 147.264C492.285 149.099 492.69 150.56 493.501 151.648C494.312 152.715 495.474 153.248 496.989 153.248ZM511.81 160.704C511.404 160.704 510.924 160.661 510.37 160.576V158.464H510.434C510.754 158.528 511.052 158.56 511.33 158.56C512.46 158.56 513.026 158.027 513.026 156.96V139.456H515.618V157.088C515.618 158.496 515.287 159.445 514.626 159.936C513.964 160.448 513.026 160.704 511.81 160.704ZM513.026 136.32V133.12H515.618V136.32H513.026ZM526.223 156.448C523.769 156.448 521.817 155.627 520.367 153.984C518.937 152.32 518.223 150.24 518.223 147.744C518.223 145.291 518.948 143.232 520.399 141.568C521.871 139.883 523.759 139.04 526.063 139.04C528.495 139.04 530.372 139.893 531.695 141.6C533.017 143.285 533.679 145.536 533.679 148.352H520.879C520.985 150.101 521.497 151.531 522.415 152.64C523.353 153.728 524.623 154.272 526.223 154.272C528.697 154.272 530.223 153.141 530.799 150.88H533.327C532.943 152.651 532.132 154.027 530.895 155.008C529.657 155.968 528.1 156.448 526.223 156.448ZM529.519 142.496C528.687 141.557 527.535 141.088 526.063 141.088C524.591 141.088 523.417 141.579 522.543 142.56C521.689 143.541 521.156 144.821 520.943 146.4H530.895C530.809 144.736 530.351 143.435 529.519 142.496ZM547.579 156.48C545.318 156.48 543.558 155.979 542.299 154.976C541.062 153.952 540.379 152.501 540.251 150.624H542.907C543.206 153.077 544.784 154.304 547.643 154.304C548.944 154.304 549.904 154.059 550.523 153.568C551.163 153.056 551.483 152.395 551.483 151.584C551.483 150.709 551.174 150.08 550.555 149.696C549.936 149.312 548.806 148.949 547.163 148.608C546.48 148.459 545.936 148.341 545.531 148.256C545.147 148.149 544.678 148.011 544.123 147.84C543.568 147.648 543.131 147.445 542.811 147.232C542.512 146.997 542.203 146.72 541.883 146.4C541.563 146.08 541.328 145.685 541.179 145.216C541.051 144.747 540.987 144.224 540.987 143.648C540.987 142.24 541.499 141.131 542.523 140.32C543.568 139.509 545.04 139.104 546.939 139.104C550.864 139.104 553.03 140.832 553.435 144.288H550.779C550.651 143.2 550.278 142.411 549.659 141.92C549.04 141.408 548.112 141.152 546.875 141.152C545.744 141.152 544.902 141.376 544.347 141.824C543.814 142.251 543.547 142.816 543.547 143.52C543.547 144.331 543.867 144.907 544.507 145.248C545.147 145.568 546.31 145.899 547.995 146.24C549.019 146.453 549.819 146.656 550.395 146.848C550.992 147.019 551.611 147.296 552.251 147.68C552.891 148.043 553.36 148.533 553.659 149.152C553.958 149.771 554.107 150.539 554.107 151.456C554.107 153.077 553.51 154.325 552.315 155.2C551.12 156.053 549.542 156.48 547.579 156.48ZM556.588 156V139.456H559.18V156H556.588ZM556.588 136.32V133.12H559.18V136.32H556.588ZM562.713 156V139.456H565.305V141.824H565.369C565.902 140.992 566.596 140.331 567.449 139.84C568.302 139.328 569.23 139.072 570.233 139.072C572.388 139.072 573.828 140.053 574.553 142.016H574.617C575.129 141.099 575.844 140.384 576.761 139.872C577.678 139.339 578.649 139.072 579.673 139.072C581.188 139.072 582.404 139.541 583.321 140.48C584.238 141.397 584.697 142.699 584.697 144.384V156H582.105V144.512C582.105 143.509 581.806 142.72 581.209 142.144C580.633 141.547 579.918 141.248 579.065 141.248C577.977 141.248 577.028 141.675 576.217 142.528C575.406 143.381 575.001 144.437 575.001 145.696V156H572.409V144.512C572.409 143.509 572.142 142.72 571.609 142.144C571.097 141.547 570.414 141.248 569.561 141.248C568.494 141.248 567.513 141.685 566.617 142.56C565.742 143.413 565.305 144.459 565.305 145.696V156H562.713ZM601.239 156H598.647V153.728H598.583C597.282 155.499 595.618 156.384 593.591 156.384C591.885 156.384 590.53 155.904 589.527 154.944C588.525 153.963 588.023 152.619 588.023 150.912V139.456H590.615V150.848C590.615 151.915 590.935 152.747 591.575 153.344C592.237 153.941 593.154 154.24 594.327 154.24C595.629 154.24 596.674 153.803 597.463 152.928C598.253 152.053 598.647 150.955 598.647 149.632V139.456H601.239V156ZM604.84 156V133.12H607.432V156H604.84ZM624.049 156.16C622.406 156.16 621.457 155.339 621.201 153.696H621.169C619.804 155.445 617.969 156.32 615.665 156.32C614.022 156.32 612.678 155.925 611.633 155.136C610.588 154.347 610.065 153.205 610.065 151.712C610.065 150.944 610.182 150.283 610.417 149.728C610.673 149.152 610.993 148.693 611.377 148.352C611.761 147.989 612.284 147.68 612.945 147.424C613.628 147.147 614.278 146.944 614.897 146.816C615.516 146.667 616.305 146.517 617.265 146.368C617.884 146.283 618.321 146.219 618.577 146.176C618.854 146.112 619.206 146.027 619.633 145.92C620.06 145.792 620.358 145.653 620.529 145.504C620.7 145.355 620.86 145.152 621.009 144.896C621.158 144.64 621.233 144.341 621.233 144C621.233 143.061 620.902 142.347 620.241 141.856C619.601 141.344 618.694 141.088 617.521 141.088C614.854 141.088 613.478 142.304 613.393 144.736H610.897C610.94 143.051 611.516 141.696 612.625 140.672C613.756 139.648 615.377 139.136 617.489 139.136C621.564 139.136 623.601 140.885 623.601 144.384V152.256C623.601 152.981 623.718 153.493 623.953 153.792C624.209 154.091 624.678 154.165 625.361 154.016H625.457V155.904C625.03 156.075 624.561 156.16 624.049 156.16ZM616.241 154.336C617.841 154.336 619.078 153.877 619.953 152.96C620.828 152.021 621.265 150.997 621.265 149.888V147.072C620.476 147.563 619.217 147.968 617.489 148.288C616.849 148.416 616.348 148.523 615.985 148.608C615.622 148.672 615.206 148.8 614.737 148.992C614.268 149.163 613.916 149.355 613.681 149.568C613.446 149.781 613.244 150.069 613.073 150.432C612.902 150.773 612.817 151.179 612.817 151.648C612.817 153.44 613.958 154.336 616.241 154.336ZM626.001 141.568V139.456H628.401V134.24H630.993V139.456H634.193V141.568H630.993V152.32C630.993 153.344 631.548 153.856 632.657 153.856C633.126 153.856 633.585 153.781 634.033 153.632H634.129V155.872C633.425 156.021 632.732 156.096 632.049 156.096C629.617 156.096 628.401 155.029 628.401 152.896V141.568H626.001ZM636.869 156V139.456H639.461V156H636.869ZM636.869 136.32V133.12H639.461V136.32H636.869ZM650.066 156.448C647.613 156.448 645.661 155.627 644.21 153.984C642.781 152.32 642.066 150.24 642.066 147.744C642.066 145.291 642.792 143.232 644.242 141.568C645.714 139.883 647.602 139.04 649.906 139.04C652.338 139.04 654.216 139.893 655.538 141.6C656.861 143.285 657.522 145.536 657.522 148.352H644.722C644.829 150.101 645.341 151.531 646.258 152.64C647.197 153.728 648.466 154.272 650.066 154.272C652.541 154.272 654.066 153.141 654.642 150.88H657.17C656.786 152.651 655.976 154.027 654.738 155.008C653.501 155.968 651.944 156.448 650.066 156.448ZM653.362 142.496C652.53 141.557 651.378 141.088 649.906 141.088C648.434 141.088 647.261 141.579 646.386 142.56C645.533 143.541 645 144.821 644.786 146.4H654.738C654.653 144.736 654.194 143.435 653.362 142.496ZM678.143 156.16C676.5 156.16 675.551 155.339 675.295 153.696H675.263C673.897 155.445 672.063 156.32 669.759 156.32C668.116 156.32 666.772 155.925 665.727 155.136C664.681 154.347 664.159 153.205 664.159 151.712C664.159 150.944 664.276 150.283 664.511 149.728C664.767 149.152 665.087 148.693 665.471 148.352C665.855 147.989 666.377 147.68 667.039 147.424C667.721 147.147 668.372 146.944 668.991 146.816C669.609 146.667 670.399 146.517 671.359 146.368C671.977 146.283 672.415 146.219 672.671 146.176C672.948 146.112 673.3 146.027 673.727 145.92C674.153 145.792 674.452 145.653 674.623 145.504C674.793 145.355 674.953 145.152 675.103 144.896C675.252 144.64 675.327 144.341 675.327 144C675.327 143.061 674.996 142.347 674.335 141.856C673.695 141.344 672.788 141.088 671.615 141.088C668.948 141.088 667.572 142.304 667.487 144.736H664.991C665.033 143.051 665.609 141.696 666.719 140.672C667.849 139.648 669.471 139.136 671.583 139.136C675.657 139.136 677.695 140.885 677.695 144.384V152.256C677.695 152.981 677.812 153.493 678.047 153.792C678.303 154.091 678.772 154.165 679.455 154.016H679.551V155.904C679.124 156.075 678.655 156.16 678.143 156.16ZM670.335 154.336C671.935 154.336 673.172 153.877 674.047 152.96C674.921 152.021 675.359 150.997 675.359 149.888V147.072C674.569 147.563 673.311 147.968 671.583 148.288C670.943 148.416 670.441 148.523 670.079 148.608C669.716 148.672 669.3 148.8 668.831 148.992C668.361 149.163 668.009 149.355 667.775 149.568C667.54 149.781 667.337 150.069 667.167 150.432C666.996 150.773 666.911 151.179 666.911 151.648C666.911 153.44 668.052 154.336 670.335 154.336ZM694.455 156.16C692.812 156.16 691.863 155.339 691.607 153.696H691.575C690.21 155.445 688.375 156.32 686.071 156.32C684.428 156.32 683.084 155.925 682.039 155.136C680.994 154.347 680.471 153.205 680.471 151.712C680.471 150.944 680.588 150.283 680.823 149.728C681.079 149.152 681.399 148.693 681.783 148.352C682.167 147.989 682.69 147.68 683.351 147.424C684.034 147.147 684.684 146.944 685.303 146.816C685.922 146.667 686.711 146.517 687.671 146.368C688.29 146.283 688.727 146.219 688.983 146.176C689.26 146.112 689.612 146.027 690.039 145.92C690.466 145.792 690.764 145.653 690.935 145.504C691.106 145.355 691.266 145.152 691.415 144.896C691.564 144.64 691.639 144.341 691.639 144C691.639 143.061 691.308 142.347 690.647 141.856C690.007 141.344 689.1 141.088 687.927 141.088C685.26 141.088 683.884 142.304 683.799 144.736H681.303C681.346 143.051 681.922 141.696 683.031 140.672C684.162 139.648 685.783 139.136 687.895 139.136C691.97 139.136 694.007 140.885 694.007 144.384V152.256C694.007 152.981 694.124 153.493 694.359 153.792C694.615 154.091 695.084 154.165 695.767 154.016H695.863V155.904C695.436 156.075 694.967 156.16 694.455 156.16ZM686.647 154.336C688.247 154.336 689.484 153.877 690.359 152.96C691.234 152.021 691.671 150.997 691.671 149.888V147.072C690.882 147.563 689.623 147.968 687.895 148.288C687.255 148.416 686.754 148.523 686.391 148.608C686.028 148.672 685.612 148.8 685.143 148.992C684.674 149.163 684.322 149.355 684.087 149.568C683.852 149.781 683.65 150.069 683.479 150.432C683.308 150.773 683.223 151.179 683.223 151.648C683.223 153.44 684.364 154.336 686.647 154.336ZM700.368 139.456V141.632H700.432C701.712 139.925 703.461 139.072 705.68 139.072C707.429 139.072 708.794 139.531 709.776 140.448C710.757 141.365 711.248 142.677 711.248 144.384V156H708.656V144.608C708.656 143.541 708.325 142.72 707.664 142.144C707.002 141.547 706.085 141.248 704.912 141.248C703.589 141.248 702.501 141.675 701.648 142.528C700.794 143.381 700.368 144.48 700.368 145.824V156H697.776V139.456H700.368ZM715.962 150.464L715.258 140.448V133.12H718.106V140.448L717.402 150.464H715.962ZM715.13 156V152.832H718.234V156H715.13Z" fill="white"/>
<g opacity="0.3" filter="url(#filter0_d_66_11)">
<mask id="mask0_66_11" style="mask-type:luminance" maskUnits="userSpaceOnUse" x="-105" y="-88" width="266" height="277">
<path d="M48.9016 -87.8528L-104.769 109.341L-8.89137 184.057C-3.27281 188.436 4.31062 189.296 10.7557 186.259L126.103 131.075C128.469 129.908 130.506 128.291 132.106 126.237C133.754 124.122 134.825 121.752 135.331 119.234L160.32 -0.928691L48.8545 -87.7924L48.9016 -87.8528Z" fill="white"/>
</mask>
<g mask="url(#mask0_66_11)">
<path d="M204.469 33.3797L48.9016 -87.8528L-104.769 109.341L50.7983 230.573L204.469 33.3797Z" fill="url(#paint0_linear_66_11)"/>
</g>
</g>
<g opacity="0.3" filter="url(#filter1_d_66_11)">
<mask id="mask1_66_11" style="mask-type:luminance" maskUnits="userSpaceOnUse" x="-147" y="-121" width="266" height="277">
<path d="M7.39673 -120.197L-146.274 76.9962L-50.3963 151.713C-44.7777 156.092 -37.1943 156.952 -30.7491 153.915L84.5981 98.7304C86.9639 97.5638 89.0008 95.9467 90.6016 93.8926C92.2494 91.7781 93.3197 89.4078 93.8259 86.8892L118.815 -33.2731L7.34965 -120.137L7.39673 -120.197Z" fill="white"/>
</mask>
<g mask="url(#mask1_66_11)">
<path d="M162.964 1.03535L7.39673 -120.197L-146.274 76.9962L9.2934 198.229L162.964 1.03535Z" fill="url(#paint1_linear_66_11)"/>
</g>
</g>
<g opacity="0.3" filter="url(#filter2_d_66_11)">
<mask id="mask2_66_11" style="mask-type:luminance" maskUnits="userSpaceOnUse" x="-188" y="-153" width="266" height="277">
<path d="M-33.4436 -152.024L-187.115 45.1698L-91.2366 119.887C-85.618 124.265 -78.0346 125.125 -71.5895 122.088L43.7578 66.904C46.1235 65.7374 48.1605 64.1203 49.7612 62.0662C51.409 59.9517 52.4794 57.5814 52.9856 55.0627L77.961 -65.207L-33.4436 -152.024Z" fill="white"/>
</mask>
<g mask="url(#mask2_66_11)">
<path d="M122.124 -30.7911L-33.4436 -152.024L-187.115 45.1698L-31.5469 166.402L122.124 -30.7911Z" fill="url(#paint2_linear_66_11)"/>
</g>
</g>
<path d="M220.812 85.57C218.671 89.7245 215.442 92.1416 210.334 92.1416C202.973 92.1416 199.293 86.7786 198.354 79.6781L223.629 73.6352C223.629 66.1193 215.667 58.1502 206.616 59.3588C198.091 60.4919 191.106 66.3837 191.106 77.7519C191.106 89.1202 197.866 95.6163 207.78 95.6163C217.695 95.6163 220.099 91.8395 222.765 85.57H220.887H220.812ZM206.804 60.4163C213.526 59.7743 216.981 65.7794 217.92 71.8601L198.241 78.6584C198.241 78.2807 198.166 77.903 198.166 77.4876C198.016 70.7271 198.091 61.2472 206.804 60.3786M198.129 76.7322C198.129 76.3923 198.129 76.0524 198.129 75.6747C198.129 75.297 198.129 75.9768 198.129 76.7322Z" fill="white"/>
<path d="M271.625 85.57C269.484 89.7245 266.254 92.1416 261.147 92.1416C253.786 92.1416 250.106 86.7786 249.167 79.6781L274.442 73.6352C274.442 66.1193 266.48 58.1502 257.429 59.3588C248.904 60.4919 241.918 66.3837 241.918 77.7519C241.918 89.1202 248.678 95.6163 258.593 95.6163C268.508 95.6163 270.911 91.8395 273.578 85.57H271.7H271.625ZM257.617 60.4163C264.339 59.7743 267.794 65.7794 268.733 71.8601L249.016 78.394C249.016 78.1296 248.979 77.903 248.979 77.6386C248.791 70.8781 248.716 61.2472 257.617 60.3786M248.941 76.7322C248.941 76.3923 248.941 76.0524 248.941 75.6747C248.941 75.297 248.941 75.9768 248.941 76.7322Z" fill="white"/>
<path d="M223.741 95.4652C228.549 94.7477 229.225 92.9348 229.225 86.5897V50.861C229.225 45.4601 228.248 44.4404 224.079 43.9494V43.4584L237.149 41.079L237.299 41.57C236.585 42.4009 236.323 43.7983 236.323 50.861V86.5897C236.323 92.9348 236.961 94.7854 241.543 95.4652V95.9562H223.741V95.4652Z" fill="white"/>
<path d="M135.11 68.8009C135.11 52.2206 146.64 41.2678 162.225 41.2678C177.811 41.2678 183.632 47.764 186.712 59.812H179.276C177.398 49.8034 171.689 42.5519 162.301 42.5519C152.912 42.5519 143.523 53.958 143.523 67.0258C143.523 80.0936 150.208 91.5751 164.103 91.5751C177.999 91.5751 183.97 83.7571 185.998 71.5202H187.125C185.172 85.7966 176.421 95.7674 161.324 95.7674C146.227 95.7674 135.11 83.8704 135.11 68.8386" fill="white"/>
<path d="M276.92 83.6815H283.117C283.605 90.3287 286.947 94.7854 293.069 94.7854C299.191 94.7854 300.43 92.2172 300.43 88.7047C300.43 85.1923 296.9 83.0395 290.14 79.9803C284.168 77.3365 278.948 74.806 278.948 68.7253C278.948 62.6446 284.168 59.4343 291.529 59.4343C298.89 59.4343 304.523 63.0601 305.913 69.3674H299.716C299.078 64.3442 296.524 60.6429 291.229 60.6429C285.933 60.6429 284.694 62.7957 284.694 65.9682C284.694 69.1408 288.375 71.8978 294.271 74.5039C300.655 77.2987 306.289 80.018 306.289 86.2498C306.289 92.4815 300.505 96.0318 292.956 96.0318C285.408 96.0318 277.859 91.0841 276.883 83.7193" fill="white"/>
<path d="M313.312 84.3992V62.2292H306.364V60.6052H313.312V51.3897L319.921 46.1399H320.41V60.6052H331.864V62.2292H320.41V84.2481C320.41 90.3288 322.438 91.9528 325.705 91.9528C328.972 91.9528 331.676 89.7245 333.479 85.1545L334.117 85.721C331.676 92.3683 327.32 95.503 322.7 95.503C318.081 95.503 313.312 92.9725 313.312 84.3992Z" fill="white"/>
<path d="M344.783 42.0609H347.713C348.464 42.0609 349.027 42.3253 349.403 42.7408C349.703 43.0807 349.891 43.5717 349.891 44.1004C349.891 45.3845 349.14 46.1777 347.6 46.1777H345.685V49.1614H344.783V42.0609ZM345.685 45.4601H347.525C348.539 45.4601 348.989 44.9691 348.989 44.1382C348.989 43.3073 348.464 42.8541 347.562 42.8541H345.647V45.4601H345.685Z" fill="white"/>
<path d="M350.191 46.5931C350.191 45.1202 351.168 43.8738 352.595 43.8738C354.022 43.8738 354.961 45.0824 354.961 46.782H351.017C351.093 47.8395 351.656 48.6326 352.67 48.6326C353.684 48.6326 353.909 48.2927 354.097 47.5751H354.886C354.66 48.6704 353.834 49.3124 352.707 49.3124C351.581 49.3124 350.229 48.1039 350.229 46.5931M351.055 46.1777H354.134C354.097 45.1579 353.571 44.5159 352.632 44.5159C351.693 44.5159 351.168 45.2335 351.055 46.1777Z" fill="white"/>
<path d="M356.576 44.7047C356.951 44.2137 357.439 43.9116 358.19 43.9116C359.242 43.9116 359.918 44.5159 359.918 45.5734V49.1991H359.129V45.6489C359.129 44.9691 358.679 44.5914 357.965 44.5914C357.252 44.5914 356.576 45.1579 356.576 46.0266V49.1991H355.787V44.0627H356.576V44.7425V44.7047Z" fill="white"/>
<path d="M360.669 47.4618H361.495C361.608 48.3682 362.209 48.5949 362.96 48.5949C363.711 48.5949 364.162 48.2172 364.162 47.764C364.162 47.3107 363.749 47.0464 362.81 46.8575C361.796 46.6309 360.895 46.4421 360.895 45.309C360.895 44.176 361.533 43.9116 362.735 43.9116C363.937 43.9116 364.613 44.5159 364.725 45.5356H363.899C363.824 44.8558 363.448 44.5537 362.697 44.5537C361.946 44.5537 361.683 44.8936 361.683 45.2712C361.683 45.6489 362.171 45.9511 363.073 46.1021C364.087 46.3288 364.951 46.5554 364.951 47.7262C364.951 48.897 364.124 49.2747 362.923 49.2747C361.721 49.2747 360.744 48.5949 360.669 47.4618Z" fill="white"/>
<path d="M365.702 42.0609H366.49V43.0429H365.702V42.0609ZM365.702 44.0249H366.49V49.1614H365.702V44.0249Z" fill="white"/>
<path d="M367.316 46.5931C367.316 45.1202 368.255 43.8738 369.795 43.8738C371.335 43.8738 372.274 45.0824 372.274 46.5931C372.274 48.1039 371.335 49.3124 369.795 49.3124C368.255 49.3124 367.316 48.1039 367.316 46.5931ZM371.41 46.5931C371.41 45.4601 370.847 44.5536 369.758 44.5536C368.668 44.5536 368.105 45.4601 368.105 46.5931C368.105 47.7262 368.668 48.6326 369.758 48.6326C370.847 48.6326 371.41 47.7262 371.41 46.5931Z" fill="white"/>
<path d="M373.851 44.7047C374.227 44.2137 374.715 43.9116 375.466 43.9116C376.518 43.9116 377.194 44.5159 377.194 45.5734V49.1991H376.405V45.6489C376.405 44.9691 375.954 44.5914 375.241 44.5914C374.527 44.5914 373.851 45.1579 373.851 46.0266V49.1991H373.062V44.0627H373.851V44.7425V44.7047Z" fill="white"/>
<path d="M344.783 52.7494H349.59V53.5047H345.685V55.7331H348.952V56.4884H345.685V59.8498H344.783V52.7494Z" fill="white"/>
<path d="M353.308 59.8498V59.1322C352.933 59.6232 352.52 59.9631 351.769 59.9631C351.017 59.9631 350.041 59.321 350.041 58.2635V54.7133H350.83V58.2635C350.83 58.9434 351.243 59.321 351.994 59.321C352.745 59.321 353.346 58.7168 353.346 57.8859V54.7133H354.135V59.8498H353.346H353.308Z" fill="white"/>
<path d="M355.975 55.3931C356.35 54.9022 356.838 54.6 357.59 54.6C358.641 54.6 359.317 55.2043 359.317 56.2618V59.8876H358.528V56.3373C358.528 55.6575 358.078 55.2798 357.364 55.2798C356.651 55.2798 355.975 55.8464 355.975 56.715V59.8876H355.186V54.7511H355.975V55.4309V55.3931Z" fill="white"/>
<path d="M360.106 57.2815C360.106 55.582 361.082 54.5622 362.359 54.5622C363.636 54.5622 363.636 54.9021 363.974 55.3931V52.7116H364.763V59.812H363.974V59.1699C363.598 59.6609 363.11 59.9631 362.397 59.9631C361.007 59.9631 360.143 58.9056 360.143 57.2438M364.049 57.2815C364.049 56.073 363.486 55.2421 362.434 55.2421C361.383 55.2421 360.969 56.1107 360.969 57.2815C360.969 58.4524 361.458 59.2833 362.434 59.2833C363.411 59.2833 364.049 58.4146 364.049 57.2815Z" fill="white"/>
<path d="M113.14 37V56.564L109.009 37H106.456L110.699 57.1305L101.799 37H99.0571L108.408 58.1502L93.1233 37H90.0438L106.418 59.6609L81.4436 37.0378C80.3169 37.0755 79.1902 37.2266 78.1011 37.3777L104.766 61.5116L68.562 40.5124C67.6982 40.9657 66.872 41.4567 66.0458 41.9476L103.489 63.7021L58.3469 48.9348C57.8211 49.6146 57.2953 50.3322 56.8071 51.0876L102.738 66.0815L52.5258 60.794C52.338 61.5871 52.1502 62.418 52 63.2489L102.475 68.5742L52.0376 73.8996C52.1878 74.7305 52.338 75.5614 52.5633 76.3545L102.775 71.067L56.9198 86.0609C57.408 86.7785 57.9338 87.4961 58.4971 88.176L103.601 73.4464L66.2336 95.1253C67.0598 95.6541 67.886 96.1073 68.7498 96.5605L104.878 75.5991L78.3264 99.6575C79.4531 99.8086 80.5798 99.9219 81.7064 99.9597L106.568 77.4498L90.3067 99.9974H93.3862L108.596 78.9227L99.2824 99.9974H102.024L110.925 79.9425L106.681 99.9974H109.235L113.216 81.2266V99.9974H115.694V69.5185V69.1785V37H113.216H113.14Z" fill="white"/>
</g>
<defs>
<filter id="filter0_d_66_11" x="-108.769" y="-87.8528" width="273.089" height="283.91" filterUnits="userSpaceOnUse" color-interpolation-filters="sRGB">
<feFlood flood-opacity="0" result="BackgroundImageFix"/>
<feColorMatrix in="SourceAlpha" type="matrix" values="0 0 0 0 0 0 0 0 0 0 0 0 0 0 0 0 0 0 127 0" result="hardAlpha"/>
<feOffset dy="4"/>
<feGaussianBlur stdDeviation="2"/>
<feComposite in2="hardAlpha" operator="out"/>
<feColorMatrix type="matrix" values="0 0 0 0 0 0 0 0 0 0 0 0 0 0 0 0 0 0 0.25 0"/>
<feBlend mode="normal" in2="BackgroundImageFix" result="effect1_dropShadow_66_11"/>
<feBlend mode="normal" in="SourceGraphic" in2="effect1_dropShadow_66_11" result="shape"/>
</filter>
<filter id="filter1_d_66_11" x="-150.274" y="-120.197" width="273.089" height="283.91" filterUnits="userSpaceOnUse" color-interpolation-filters="sRGB">
<feFlood flood-opacity="0" result="BackgroundImageFix"/>
<feColorMatrix in="SourceAlpha" type="matrix" values="0 0 0 0 0 0 0 0 0 0 0 0 0 0 0 0 0 0 127 0" result="hardAlpha"/>
<feOffset dy="4"/>
<feGaussianBlur stdDeviation="2"/>
<feComposite in2="hardAlpha" operator="out"/>
<feColorMatrix type="matrix" values="0 0 0 0 0 0 0 0 0 0 0 0 0 0 0 0 0 0 0.25 0"/>
<feBlend mode="normal" in2="BackgroundImageFix" result="effect1_dropShadow_66_11"/>
<feBlend mode="normal" in="SourceGraphic" in2="effect1_dropShadow_66_11" result="shape"/>
</filter>
<filter id="filter2_d_66_11" x="-191.115" y="-152.024" width="273.075" height="283.91" filterUnits="userSpaceOnUse" color-interpolation-filters="sRGB">
<feFlood flood-opacity="0" result="BackgroundImageFix"/>
<feColorMatrix in="SourceAlpha" type="matrix" values="0 0 0 0 0 0 0 0 0 0 0 0 0 0 0 0 0 0 127 0" result="hardAlpha"/>
<feOffset dy="4"/>
<feGaussianBlur stdDeviation="2"/>
<feComposite in2="hardAlpha" operator="out"/>
<feColorMatrix type="matrix" values="0 0 0 0 0 0 0 0 0 0 0 0 0 0 0 0 0 0 0.25 0"/>
<feBlend mode="normal" in2="BackgroundImageFix" result="effect1_dropShadow_66_11"/>
<feBlend mode="normal" in="SourceGraphic" in2="effect1_dropShadow_66_11" result="shape"/>
</filter>
<linearGradient id="paint0_linear_66_11" x1="123.501" y1="137.155" x2="-32.0668" y2="15.9227" gradientUnits="userSpaceOnUse">
<stop stop-color="#4764AF"/>
<stop offset="1" stop-color="#4764AF"/>
</linearGradient>
<linearGradient id="paint1_linear_66_11" x1="82.0564" y1="104.858" x2="-73.5112" y2="-16.3746" gradientUnits="userSpaceOnUse">
<stop stop-color="#4764AF"/>
<stop offset="1" stop-color="#4764AF"/>
</linearGradient>
<linearGradient id="paint2_linear_66_11" x1="41.1557" y1="72.9844" x2="-114.412" y2="-48.2481" gradientUnits="userSpaceOnUse">
<stop stop-color="#4764AF"/>
<stop offset="1" stop-color="#4764AF"/>
</linearGradient>
<clipPath id="clip0_66_11">
<rect width="970" height="250" fill="white"/>
</clipPath>
</defs>
</svg>
